<svg width="1072" height="859" viewBox="0 0 1072 859" fill="none" xmlns="http://www.w3.org/2000/svg">
<line x1="239" y1="7.59265" x2="832.001" y2="7.59265" stroke="white" stroke-opacity="0.5" stroke-width="3"/>
<line y1="-1.5" x2="468.92" y2="-1.5" transform="matrix(-0.486224 0.873834 -0.832938 -0.553367 239 8)" stroke="white" stroke-opacity="0.5" stroke-width="3"/>
<line y1="-1.5" x2="468.92" y2="-1.5" transform="matrix(-0.486229 -0.873831 0.832934 -0.553373 1060 417.757)" stroke="white" stroke-opacity="0.5" stroke-width="3"/>
<line y1="-1.5" x2="673.778" y2="-1.5" transform="matrix(0.773252 0.634099 -0.566148 0.824304 11 417.759)" stroke="white" stroke-opacity="0.5" stroke-width="3"/>
<line y1="-1.5" x2="679.205" y2="-1.5" transform="matrix(0.77738 -0.629032 0.561015 0.827806 532 845)" stroke="white" stroke-opacity="0.5" stroke-width="3"/>
<path d="M220.418 57H204L235.841 1H304L295.045 12.4872H245.791L220.418 57Z" fill="#F2F2F2" stroke="white"/>
<path d="M58.7907 448L53.791 459L5.52355 419.404L35.2908 366L44.5589 373.433L20.4136 416.363L58.7907 448Z" fill="#F2F2F2" stroke="white"/>
<path d="M569.458 805.013L579.32 811.994L531.162 851.022L484 811.994L493 805.013L531.162 836.748L569.458 805.013Z" fill="#F2F2F2" stroke="white"/>
<path d="M1012.29 448L1017.29 459L1065.56 419.404L1035.79 366L1026.52 373.433L1050.67 416.363L1012.29 448Z" fill="#F2F2F2" stroke="white"/>
<path d="M850.582 57H867L835.159 1H767L775.955 12.4872H825.209L850.582 57Z" fill="#F2F2F2" stroke="white"/>
</svg>
