<svg width="580" height="167" viewBox="0 0 580 167" fill="none" xmlns="http://www.w3.org/2000/svg">
<circle cx="20" cy="146" r="13.5" stroke="#A3A3A3"/>
<path d="M27.5002 145.5C27.5002 149.366 24.3662 152.5 20.5002 152.5C16.6342 152.5 13.5002 149.366 13.5002 145.5C13.5002 141.634 16.6342 138.5 20.5002 138.5C24.3662 138.5 27.5002 141.634 27.5002 145.5Z" fill="rgba(255,255,255,0.5)" stroke="rgba(255,255,255,0.5)"/>
<circle cx="20.5" cy="146.5" r="20" stroke="#A3A3A3"/>
<line x1="19.9478" y1="145.517" x2="198.986" y2="0.762957" stroke="rgba(255,255,255,0.5)"/>
<path d="M361 0V36" stroke="rgba(255,255,255,0.5)" stroke-width="2"/>
<path d="M20 146L199.363 1H362" stroke="rgba(255,255,255,0.5)" stroke-width="2"/>
<path d="M367 0H575C577.761 0 580 2.23858 580 5V31C580 33.7614 577.761 36 575 36H367V0Z" fill="rgba(255,255,255,0.5)"/>
</svg>
