<svg width="1160" height="891" viewBox="0 0 1160 891" fill="none" xmlns="http://www.w3.org/2000/svg">
<path d="M238.717 59.0894H220.937L255.421 1H329.238L319.54 12.9158H266.197L238.717 59.0894Z" fill="#F2F2F2" stroke="white"/>
<path d="M63.6713 464.678L58.2566 476.088L5.9821 435.015L38.2205 379.618L48.258 387.329L22.1083 431.86L63.6713 464.678Z" fill="#F2F2F2" stroke="white"/>
<path d="M616.732 835.011L627.413 842.252L575.257 882.737L524.18 842.252L533.927 835.011L575.257 867.93L616.732 835.011Z" fill="#F2F2F2" stroke="white"/>
<path d="M1096.33 464.678L1101.74 476.088L1154.02 435.015L1121.78 379.618L1111.74 387.329L1137.89 431.86L1096.33 464.678Z" fill="#F2F2F2" stroke="white"/>
<path d="M921.195 59.0894H938.976L904.491 1H830.674L840.373 12.9158H893.715L921.195 59.0894Z" fill="#F2F2F2" stroke="white"/>
</svg>
